<?xml version="1.0" encoding="UTF-8"?>
<svg width="140px" height="16px" viewBox="0 0 140 16" version="1.1" xmlns="http://www.w3.org/2000/svg" xmlns:xlink="http://www.w3.org/1999/xlink">
    <!-- Generator: Sketch 47.1 (45422) - http://www.bohemiancoding.com/sketch -->
    <title>Blancc State</title>
    <defs></defs>
    <g id="Page-1" stroke="none" stroke-width="1" fill="none" fill-rule="evenodd">
        <g id="TAB---About" transform="translate(-258.000000, -21.000000)" fill="#FFFFFF">
            <g id="Nav">
                <g id="Logo_outline" transform="translate(258.000000, 19.000000)">
                    <g id="Logo">
                        <path d="M10.32,9.52 C10.853336,9.8933352 11.2799984,10.3733304 11.6,10.96 C11.9200016,11.5466696 12.08,12.1866632 12.08,12.88 L12.08,12.92 C12.08,13.4800028 11.9733344,14.0099975 11.76,14.51 C11.5466656,15.0100025 11.2533352,15.4433315 10.88,15.81 C10.5066648,16.1766685 10.0733358,16.4666656 9.58,16.68 C9.0866642,16.8933344 8.5600028,17 8,17 L4.02,17 L4.98,14.6 L8,14.6 C8.466669,14.6 8.8633317,14.4366683 9.19,14.11 C9.5166683,13.7833317 9.68,13.386669 9.68,12.92 L9.68,12.88 C9.68,12.413331 9.5166683,12.0166683 9.19,11.69 C8.8633317,11.3633317 8.466669,11.2 8,11.2 L3.1,11.2 L3.1,17 L0.7,17 L0.7,3 L7.02,3 C7.5800028,3 8.1099975,3.1066656 8.61,3.32 C9.1100025,3.5333344 9.5433315,3.8266648 9.91,4.2 C10.2766685,4.5733352 10.5666656,5.0066642 10.78,5.5 C10.9933344,5.9933358 11.1,6.5199972 11.1,7.08 L11.1,7.12 C11.1,7.5733356 11.0300007,8.0033313 10.89,8.41 C10.7499993,8.8166687 10.5600012,9.186665 10.32,9.52 Z M8.7,7.08 C8.7,6.613331 8.5366683,6.2166683 8.21,5.89 C7.8833317,5.5633317 7.486669,5.4 7.02,5.4 L3.1,5.4 L3.1,8.8 L7.02,8.8 C7.486669,8.8 7.8833317,8.6366683 8.21,8.31 C8.5366683,7.9833317 8.7,7.586669 8.7,7.12 L8.7,7.08 Z M15.78,14.6 L21.28,14.6 L21.28,17 L13.38,17 L13.38,3.02 L15.78,3.02 L15.78,14.6 Z M30.84,3 L37.16,17 L34.52,17 L32.36,12.2 L29.52,5.92 L26.68,12.2 L30.32,12.2 L31.4,14.6 L25.6,14.6 L24.52,17 L21.88,17 L28.2,3 L30.84,3 Z M46.28,2.98 L48.68,2.98 L48.68,16.98 L46.08,16.98 L40.46,7.4 L40.46,16.98 L38.06,16.98 L38.06,2.98 L40.66,2.98 L46.28,12.56 L46.28,2.98 Z M62.22,15.12 C61.55333,15.78667 60.7800044,16.3099981 59.9,16.69 C59.0199956,17.0700019 58.0733384,17.26 57.06,17.26 C56.059995,17.26 55.1166711,17.0700019 54.23,16.69 C53.3433289,16.3099981 52.5700033,15.7900033 51.91,15.13 C51.2499967,14.4699967 50.7300019,13.6966711 50.35,12.81 C49.9699981,11.9233289 49.78,10.980005 49.78,9.98 C49.78,8.979995 49.9699981,8.0366711 50.35,7.15 C50.7300019,6.2633289 51.2499967,5.4900033 51.91,4.83 C52.5700033,4.1699967 53.3433289,3.6500019 54.23,3.27 C55.1166711,2.8899981 56.059995,2.7 57.06,2.7 C58.0733384,2.7 59.0199956,2.8899981 59.9,3.27 C60.7800044,3.6500019 61.55333,4.17333 62.22,4.84 L60.52,6.54 C60.053331,6.073331 59.5266696,5.7166679 58.94,5.47 C58.3533304,5.2233321 57.72667,5.1 57.06,5.1 C56.4066634,5.1 55.7866696,5.2233321 55.2,5.47 C54.6133304,5.7166679 54.086669,6.073331 53.62,6.54 C53.153331,7.006669 52.7966679,7.5333304 52.55,8.12 C52.3033321,8.7066696 52.18,9.3266634 52.18,9.98 C52.18,10.6333366 52.3033321,11.2566637 52.55,11.85 C52.7966679,12.4433363 53.153331,12.973331 53.62,13.44 C54.086669,13.906669 54.6133304,14.2599988 55.2,14.5 C55.7866696,14.7400012 56.4066634,14.86 57.06,14.86 C57.72667,14.86 58.3533304,14.7400012 58.94,14.5 C59.5266696,14.2599988 60.053331,13.906669 60.52,13.44 L62.22,15.12 Z M75.26,15.12 C74.59333,15.78667 73.8200044,16.3099981 72.94,16.69 C72.0599956,17.0700019 71.1133384,17.26 70.1,17.26 C69.099995,17.26 68.1566711,17.0700019 67.27,16.69 C66.3833289,16.3099981 65.6100033,15.7900033 64.95,15.13 C64.2899967,14.4699967 63.7700019,13.6966711 63.39,12.81 C63.0099981,11.9233289 62.82,10.980005 62.82,9.98 C62.82,8.979995 63.0099981,8.0366711 63.39,7.15 C63.7700019,6.2633289 64.2899967,5.4900033 64.95,4.83 C65.6100033,4.1699967 66.3833289,3.6500019 67.27,3.27 C68.1566711,2.8899981 69.099995,2.7 70.1,2.7 C71.1133384,2.7 72.0599956,2.8899981 72.94,3.27 C73.8200044,3.6500019 74.59333,4.17333 75.26,4.84 L73.56,6.54 C73.093331,6.073331 72.5666696,5.7166679 71.98,5.47 C71.3933304,5.2233321 70.76667,5.1 70.1,5.1 C69.4466634,5.1 68.8266696,5.2233321 68.24,5.47 C67.6533304,5.7166679 67.126669,6.073331 66.66,6.54 C66.193331,7.006669 65.8366679,7.5333304 65.59,8.12 C65.3433321,8.7066696 65.22,9.3266634 65.22,9.98 C65.22,10.6333366 65.3433321,11.2566637 65.59,11.85 C65.8366679,12.4433363 66.193331,12.973331 66.66,13.44 C67.126669,13.906669 67.6533304,14.2599988 68.24,14.5 C68.8266696,14.7400012 69.4466634,14.86 70.1,14.86 C70.76667,14.86 71.3933304,14.7400012 71.98,14.5 C72.5666696,14.2599988 73.093331,13.906669 73.56,13.44 L75.26,15.12 Z M90.02,13 C90.02,13.6533366 89.9133344,14.2433307 89.7,14.77 C89.4866656,15.2966693 89.1833353,15.7433315 88.79,16.11 C88.3966647,16.4766685 87.9200028,16.759999 87.36,16.96 C86.7999972,17.160001 86.1733368,17.26 85.48,17.26 C84.3733278,17.26 83.386671,17.0833351 82.52,16.73 C81.653329,16.3766649 80.9400028,15.9733356 80.38,15.52 L82.04,13.86 C82.4800022,14.260002 82.9733306,14.5666656 83.52,14.78 C83.853335,14.913334 84.1666652,14.9999998 84.46,15.04 C84.7533348,15.0800002 84.9933324,15.1 85.18,15.1 C85.5266684,15.1 85.8433319,15.0566671 86.13,14.97 C86.4166681,14.8833329 86.6666656,14.7666674 86.88,14.62 C87.3333356,14.286665 87.56,13.8466694 87.56,13.3 C87.56,12.966665 87.4400012,12.666668 87.2,12.4 C87.0133324,12.1866656 86.7733348,12.013334 86.48,11.88 C86.2399988,11.746666 85.986668,11.6400004 85.72,11.56 C85.453332,11.4799996 85.2133344,11.406667 85,11.34 C84.933333,11.3133332 84.8733336,11.2966667 84.82,11.29 C84.7666664,11.2833333 84.7200002,11.2666668 84.68,11.24 C84.6533332,11.24 84.6133336,11.2266668 84.56,11.2 C84.2799986,11.1199996 83.8766693,10.980001 83.35,10.78 C82.8233307,10.579999 82.3000026,10.3066684 81.78,9.96 C80.5666606,9.1466626 79.96,8.1466726 79.96,6.96 C79.96,6.1733294 80.0966653,5.5100027 80.37,4.97 C80.6433347,4.4299973 80.9999978,3.9900017 81.44,3.65 C81.8800022,3.3099983 82.3699973,3.0666674 82.91,2.92 C83.4500027,2.7733326 83.9799974,2.7 84.5,2.7 C85.4600048,2.7 86.2666634,2.8133322 86.92,3.04 C87.5733366,3.2666678 88.0933314,3.4933322 88.48,3.72 C88.680001,3.8400006 88.8499993,3.9566661 88.99,4.07 C89.1300007,4.1833339 89.2533328,4.2866662 89.36,4.38 L87.66,6.1 C87.2999982,5.7399982 86.9333352,5.4666676 86.56,5.28 C85.9999972,5.013332 85.4133364,4.88 84.8,4.88 C84.533332,4.88 84.266668,4.913333 84,4.98 C83.733332,5.046667 83.500001,5.1333328 83.3,5.24 C82.7133304,5.6000018 82.42,6.0733304 82.42,6.66 C82.42,7.0200018 82.5399988,7.3266654 82.78,7.58 C82.9533342,7.780001 83.1933318,7.9599992 83.5,8.12 C83.7533346,8.253334 84.0199986,8.3599996 84.3,8.44 C84.5800014,8.5200004 84.8399988,8.593333 85.08,8.66 L85.32,8.72 C85.386667,8.7466668 85.5133324,8.7866664 85.7,8.84 C85.8866676,8.8933336 86.1066654,8.9733328 86.36,9.08 C86.6133346,9.1866672 86.8899985,9.3133326 87.19,9.46 C87.4900015,9.6066674 87.7866652,9.779999 88.08,9.98 C89.3733398,10.8333376 90.02,11.8399942 90.02,13 Z M101.54,3 L101.54,5.4 L97.44,5.4 L97.44,17 L95.04,17 L95.04,5.4 L90.92,5.4 L90.92,3 L101.54,3 Z M111.1,3 L117.42,17 L114.78,17 L112.62,12.2 L109.78,5.92 L106.94,12.2 L110.58,12.2 L111.66,14.6 L105.86,14.6 L104.78,17 L102.14,17 L108.46,3 L111.1,3 Z M128.64,3 L128.64,5.4 L124.54,5.4 L124.54,17 L122.14,17 L122.14,5.4 L118.02,5.4 L118.02,3 L128.64,3 Z M139.16,5.4 L132.14,5.4 L132.14,8.8 L137.36,8.8 L137.96,11.2 L132.14,11.2 L132.14,14.6 L139.16,14.6 L139.16,17 L129.74,17 L129.74,3 L139.16,3 L139.16,5.4 Z" id="BLANCC-STATE"></path>
                    </g>
                </g>
            </g>
        </g>
    </g>
</svg>
